<svg xmlns:dc="http://purl.org/dc/elements/1.1/" xmlns:cc="http://creativecommons.org/ns#" xmlns:rdf="http://www.w3.org/1999/02/22-rdf-syntax-ns#" xmlns:svg="http://www.w3.org/2000/svg" xmlns="http://www.w3.org/2000/svg" xmlns:sodipodi="http://sodipodi.sourceforge.net/DTD/sodipodi-0.dtd" xmlns:inkscape="http://www.inkscape.org/namespaces/inkscape" viewBox="0 0 700.00001 699.99998" id="svg22" sodipodi:docname="pagseguro-logo.svg" width="700" height="700" inkscape:version="0.92.4 (5da689c313, 2019-01-14)" inkscape:export-filename="C:\Users\suitedoalex\sites\pagseguro-logo-0.png" inkscape:export-xdpi="561.73712" inkscape:export-ydpi="561.73712"><metadata></metadata><defs id="defs4"><style id="style2">.a{fill:#dde460;}.b{fill:#a7dcda;}.c{fill:#f6df3f;}</style></defs><path d="m 206.04393,322.92627 c -15.09447,-36.54603 -56.89453,-53.91629 -93.30124,-38.79279 -36.406698,15.1235 -53.701478,57.00485 -38.601202,93.55669 15.100276,36.55184 56.894542,53.91048 93.295442,38.78698 36.40089,-15.12349 53.71309,-57.00484 38.607,-93.55088 z" id="path6" inkscape:connector-curvature="0" style="stroke-width:0.58055657" inkscape:export-filename="C:\Users\suitedoalex\sites\pagseguro-logo-4.png" inkscape:export-xdpi="68.249916" inkscape:export-ydpi="68.249916"></path><path d="m 165.7417,288.27866 c -34.14833,-14.1772 -73.312681,2.10742 -87.472455,36.37186 -14.159774,34.26445 2.049365,73.52749 36.191895,87.69888 34.14253,14.17138 73.30687,-2.10162 87.46665,-36.36607 14.15977,-34.26444 -2.04356,-73.53909 -36.18609,-87.70467 z" id="path8" inkscape:connector-curvature="0" style="stroke-width:0.58055657" inkscape:export-filename="C:\Users\suitedoalex\sites\pagseguro-logo-4.png" inkscape:export-xdpi="68.249916" inkscape:export-ydpi="68.249916"></path><path class="a" d="m 199.44301,340.59841 c 0,-32.92917 -26.56627,-59.57091 -59.3561,-59.57091 -32.78984,0 -59.327078,26.64174 -59.327078,59.57091 0,32.92917 26.566268,59.57091 59.327078,59.57091 32.7608,0 59.3561,-26.67077 59.3561,-59.57091 z" id="path10" inkscape:connector-curvature="0" style="fill:#dde460;stroke-width:0.58055657" inkscape:export-filename="C:\Users\suitedoalex\sites\pagseguro-logo-4.png" inkscape:export-xdpi="68.249916" inkscape:export-ydpi="68.249916"></path><path d="m 140.08691,401.71941 c -34.02062,0 -61.597053,-27.66352 -61.597053,-61.82347 0,-34.15995 27.576433,-61.83508 61.597053,-61.83508 34.02061,0 61.60285,27.68674 61.60285,61.83508 0,34.14834 -27.57644,61.82347 -61.60285,61.82347 z m 0,-119.08376 a 57.376404,57.376404 0 1 0 57.12095,57.26029 c -0.0174,-31.64614 -25.57932,-57.32416 -57.12095,-57.35899 z" id="path12" inkscape:connector-curvature="0" style="stroke-width:0.58055657" inkscape:export-filename="C:\Users\suitedoalex\sites\pagseguro-logo-4.png" inkscape:export-xdpi="68.249916" inkscape:export-ydpi="68.249916"></path><path class="b" d="m 179.41961,367.87876 c 0,-27.28615 -22.06115,-49.4518 -49.26603,-49.4518 -27.20488,0 -49.283442,22.14242 -49.283442,49.4518 0,27.30939 22.061152,49.44601 49.260222,49.44601 27.19908,0 49.26603,-22.14243 49.26603,-49.44601 z" id="path14" inkscape:connector-curvature="0" style="fill:#a7dcda;stroke-width:0.58055657" inkscape:export-filename="C:\Users\suitedoalex\sites\pagseguro-logo-4.png" inkscape:export-xdpi="68.249916" inkscape:export-ydpi="68.249916"></path><path d="m 130.25808,419.57733 a 51.669533,51.669533 0 0 1 -10.89704,-1.16112 C 91.558184,412.44809 73.85121,384.97035 79.813525,357.05719 a 51.489561,51.489561 0 0 1 61.132605,-39.71007 c 27.81446,5.97973 45.52144,33.45167 39.57654,61.36483 a 51.570839,51.570839 0 0 1 -50.19492,40.86538 z m -0.11611,-98.91523 a 47.187637,47.187637 0 1 0 36.57507,17.53861 47.112164,47.112164 0 0 0 -36.57507,-17.53861 z" id="path16" inkscape:connector-curvature="0" style="stroke-width:0.58055657" inkscape:export-filename="C:\Users\suitedoalex\sites\pagseguro-logo-4.png" inkscape:export-xdpi="68.249916" inkscape:export-ydpi="68.249916"></path><path class="c" d="m 203.74493,369.95716 a 30.560497,30.560497 0 1 0 -30.5663,30.68241 30.612747,30.612747 0 0 0 30.56049,-30.68241 z" id="path18" inkscape:connector-curvature="0" style="fill:#f6df3f;stroke-width:0.58055657" inkscape:export-filename="C:\Users\suitedoalex\sites\pagseguro-logo-4.png" inkscape:export-xdpi="68.249916" inkscape:export-ydpi="68.249916"></path><path d="m 173.17863,402.88052 a 32.923362,32.923362 0 1 1 32.79564,-32.92336 32.859501,32.859501 0 0 1 -32.79564,32.92336 z m 0,-61.35322 a 28.447271,28.447271 0 1 0 28.32535,28.44727 28.33116,28.33116 0 0 0 -28.32535,-28.44727 z m 89.34765,12.19169 h -10.78674 l -4.3832,20.83037 h -12.32522 l 11.98269,-56.26754 h 23.22226 c 9.44566,0 15.89564,6.61834 15.89564,14.25266 -0.0174,15.08867 -12.04074,21.16709 -23.59962,21.16709 z m 1.52106,-27.17005 h -6.5719 l -4.0639,18.91454 h 4.21484 c 8.26713,0 15.91306,-1.8752 15.91306,-11.74466 0.0174,-4.49351 -4.67929,-7.18729 -9.48629,-7.18729 z m 61.34741,32.964 a 79.40272,79.40272 0 0 0 -2.02614,15.019 H 311.4672 c 0.17417,-2.10161 0.9405,-6.07842 1.61395,-9.94493 -3.04212,5.47465 -7.99427,10.87963 -16.28461,10.87963 -8.52258,0 -12.8303,-5.71268 -12.8303,-13.49794 0,-18.99001 16.96386,-30.72305 33.12655,-30.72305 4.89409,0 11.22797,0.84761 14.17139,1.94486 z m -10.56032,-20.41817 c -9.70691,0 -18.57781,10.27585 -18.57781,21.60832 0,3.79103 1.34689,6.92023 5.71267,6.92023 5.90426,0 11.55308,-8.12779 13.93336,-18.27592 l 2.28159,-9.78818 a 9.5269331,9.5269331 0 0 0 -3.35562,-0.46445 z m 55.73343,29.78255 c -3.79104,17.05095 -10.04363,24.80718 -28.76658,24.80718 a 47.245693,47.245693 0 0 1 -14.68808,-2.32222 l 2.23514,-8.39485 a 25.376127,25.376127 0 0 0 12.15105,2.90278 c 10.54291,0 14.59519,-5.56753 16.54006,-13.50374 l 1.34689,-5.56173 c -4.0639,5.40498 -8.26713,7.75623 -15.26864,7.75623 -8.70835,0 -12.91738,-5.39337 -12.91738,-12.56324 0,-19.07129 17.38186,-30.63017 33.591,-30.63017 a 53.306703,53.306703 0 0 1 13.71855,1.84617 z m -8.26713,-29.68966 c -9.7069,0 -18.73456,9.95654 -18.73456,21.76507 0,3.79103 1.34689,6.5777 5.48626,6.5777 7.93621,0 12.31941,-10.1191 14.09011,-17.6315 l 2.44414,-10.16555 a 11.291825,11.291825 0 0 0 -3.28595,-0.54572 z m 57.77118,-10.61838 a 27.04813,27.04813 0 0 0 -11.65177,-2.78667 c -5.13792,0 -12.82449,2.36286 -12.82449,8.18585 0,8.18004 22.28176,6.92604 22.28176,22.44431 0,12.32522 -11.65177,19.07129 -25.90443,19.07129 A 50.444559,50.444559 0 0 1 375.5142,373.0283 l 2.96084,-9.13215 a 28.627244,28.627244 0 0 0 13.85208,3.15242 c 5.99715,-0.0813 12.65613,-2.78667 12.65613,-9.03927 0,-8.84768 -22.09598,-7.92459 -22.09598,-22.18887 0,-13.40505 13.40505,-18.38622 26.26438,-18.38622 a 38.897289,38.897289 0 0 1 13.84046,2.52542 z m 13.3528,28.09313 a 12.580661,12.580661 0 0 0 -0.58055,3.9652 c 0,5.71268 4.3832,7.99427 9.53274,7.99427 a 25.114877,25.114877 0 0 0 12.98705,-3.88393 l -0.4122,7.51821 a 36.482174,36.482174 0 0 1 -16.12205,3.28595 c -9.19602,0 -17.88695,-3.97101 -17.88695,-14.34555 0,-16.7955 12.77224,-29.78255 27.76221,-29.78255 6.85057,0 14.5952,2.44414 14.5952,10.20618 0.0464,13.27733 -19.28029,15.04222 -29.86383,15.04222 z m 14.25267,-18.47331 c -6.38612,0 -11.03058,6.66479 -13.15541,12.14525 7.59368,0 18.21786,-1.3469 18.21786,-7.99427 0.0987,-3.135 -2.18289,-4.15678 -5.01601,-4.15678 z m 54.57231,30.70564 c -3.79684,17.05094 -10.03201,24.80718 -28.77818,24.80718 a 47.199248,47.199248 0 0 1 -14.67647,-2.32223 l 2.28739,-8.36582 a 25.35871,25.35871 0 0 0 12.15105,2.90279 c 10.54871,0 14.59519,-5.56754 16.53425,-13.50375 l 1.3585,-5.56173 c -4.06389,5.40498 -8.26712,7.75624 -15.28025,7.75624 -8.70835,0 -12.89996,-5.39338 -12.89996,-12.56325 0,-19.07128 17.37605,-30.63016 33.57358,-30.63016 a 53.347342,53.347342 0 0 1 13.70694,1.79972 z m -8.26712,-29.68966 c -9.70691,0 -18.72876,9.95654 -18.72876,21.76506 0,3.79104 1.3469,6.57771 5.48046,6.57771 7.9304,0 12.3136,-10.1191 14.09591,-17.63151 l 2.44414,-10.16554 a 11.181519,11.181519 0 0 0 -3.29756,-0.54572 z m 55.01354,25.81735 a 94.561052,94.561052 0 0 0 -1.60814,9.52693 h -10.88544 l 1.16111,-7.58207 c -3.62847,4.96957 -8.12779,8.51677 -15.09447,8.51677 -6.96667,0 -11.61113,-3.42529 -11.61113,-10.45002 a 23.570596,23.570596 0 0 1 0.418,-4.81862 l 5.98554,-28.09313 h 11.65177 l -5.28887,25.54448 a 21.178703,21.178703 0 0 0 -0.67344,4.38901 c 0,3.21048 1.52105,5.57335 5.57334,5.57335 6.32807,0 9.2889,-5.80557 10.45002,-11.22797 l 5.22501,-24.3021 h 11.61113 z m 38.05548,-22.70557 a 9.7127112,9.7127112 0 0 0 -3.42528,-0.58056 c -7.68657,0 -11.98269,7.43693 -13.42247,14.18881 l -3.9594,18.63586 h -11.73885 l 6.96668,-32.90594 a 93.080633,93.080633 0 0 0 1.69522,-9.36438 h 10.96091 l -1.59653,8.70835 c 2.61251,-5.22501 7.76785,-9.70691 13.84047,-9.70691 a 11.384714,11.384714 0 0 1 3.36723,0.42381 z m 17.03934,33.1672 c -9.36438,0 -17.99726,-5.14954 -17.99726,-15.36153 0,-16.36589 10.54871,-28.76658 27.33841,-28.76658 9.36438,0 17.88695,4.98118 17.88695,15.26864 0,16.19753 -10.71708,28.85947 -27.25133,28.85947 z m 7.34404,-36.27898 c -8.70835,0 -13.07414,12.3078 -13.07414,19.65184 0,5.06245 1.93906,8.78382 7.41952,8.78382 8.52257,0 13.42246,-12.40069 13.42246,-19.66926 0,-5.07406 -2.28739,-8.78382 -7.76784,-8.78382 z" id="path20" inkscape:connector-curvature="0" style="stroke-width:0.58055657" inkscape:export-filename="C:\Users\suitedoalex\sites\pagseguro-logo-4.png" inkscape:export-xdpi="68.249916" inkscape:export-ydpi="68.249916"></path></svg>